<svg width="18" height="18" viewBox="0 0 18 18" fill="none" xmlns="http://www.w3.org/2000/svg">
<path fill-rule="evenodd" clip-rule="evenodd" d="M9.19239 0.384623C9.70522 0.384622 10.121 0.800358 10.121 1.31319L10.121 8.26381H17.0716C17.5844 8.26381 18.0001 8.67955 18.0001 9.19238C18.0001 9.70522 17.5844 10.121 17.0716 10.121H10.121L10.121 17.0716C10.121 17.5844 9.70522 18.0001 9.19239 18.0001C8.67955 18.0001 8.26382 17.5844 8.26382 17.0716L8.26382 10.121L1.3132 10.121C0.800363 10.121 0.384627 9.70522 0.384627 9.19238C0.384627 8.67955 0.800363 8.26381 1.3132 8.26381L8.26382 8.26381L8.26382 1.31319C8.26382 0.800358 8.67955 0.384622 9.19239 0.384623Z" fill="#252424"/>
</svg>
