<svg width="17" height="19" viewBox="0 0 17 19" fill="none" xmlns="http://www.w3.org/2000/svg">
<path fill-rule="evenodd" clip-rule="evenodd" d="M6.53887 0.0696239C6.29675 0.153239 6.07159 0.361478 5.95312 0.611284C5.87033 0.785899 5.86513 0.837894 5.8648 1.49271L5.86443 2.18857H4.01555C1.98622 2.18857 1.94102 2.1928 1.63978 2.41103C1.37038 2.6062 1.28216 2.7741 0.999286 3.63022C0.768222 4.32953 0.736788 4.45683 0.753934 4.62324C0.778911 4.8651 0.885758 5.07531 1.06271 5.2307C1.26186 5.40554 1.42348 5.46162 1.78979 5.48292L2.113 5.50173L2.13338 5.65438C2.14458 5.73836 2.36281 8.41237 2.61836 11.5966C2.87389 14.7809 3.09901 17.4781 3.11861 17.5903C3.23451 18.254 3.81399 18.8351 4.48721 18.9627C4.61529 18.987 6.09293 19.0004 8.60653 19C11.876 18.9994 12.568 18.9905 12.7786 18.9458C13.0781 18.8824 13.409 18.6924 13.6447 18.4486C13.8176 18.2699 14.0401 17.8518 14.0817 17.6275C14.1036 17.5095 15.0681 5.70856 15.0683 5.55655C15.0684 5.50474 15.1008 5.4916 15.2286 5.4916C15.5311 5.4916 15.7749 5.39092 15.9784 5.18193C16.3325 4.8183 16.3371 4.61552 16.0129 3.63322C15.7504 2.83745 15.637 2.62301 15.3729 2.42272C15.0699 2.19284 15.0267 2.18857 13.0019 2.18857H11.1715V1.63871C11.1715 1.33628 11.1537 0.989722 11.1318 0.868623C11.0647 0.49616 10.8223 0.202524 10.4745 0.0724074C10.2886 0.0028582 10.183 -0.00100152 8.50729 0.000148974C6.88625 0.00126235 6.71987 0.00712616 6.53887 0.0696239ZM10.0582 1.65044V2.18857H8.51798H6.97781V1.65044V1.1123H8.51798H10.0582V1.65044ZM14.8983 3.81229C14.9918 4.09297 15.0684 4.33513 15.0684 4.35042C15.0684 4.36572 12.1123 4.37822 8.49943 4.37822C4.88651 4.37822 1.93048 4.37336 1.93048 4.36738C1.93048 4.34 2.26112 3.37458 2.28216 3.34048C2.29849 3.31409 4.26309 3.30195 8.51709 3.30195H14.7282L14.8983 3.81229ZM13.9548 5.53799C13.9547 5.56353 13.7387 8.25101 13.4748 11.5102C13.1203 15.8896 12.9808 17.4634 12.9404 17.541C12.8696 17.6772 12.7384 17.798 12.6072 17.8476C12.5357 17.8748 11.2736 17.8872 8.59766 17.8872H4.69255L4.52696 17.8037C4.19684 17.6373 4.25774 18.1151 3.73356 11.5781C3.47741 8.38361 3.259 5.70734 3.2482 5.63077L3.22853 5.4916H8.59176C12.8577 5.4916 13.955 5.5011 13.9548 5.53799ZM4.93282 6.24429C4.86346 6.29082 4.77435 6.38888 4.73479 6.46214L4.66283 6.59533L4.94307 11.7374C5.25073 17.383 5.21462 17.0078 5.46817 17.1968C5.61365 17.3052 5.92963 17.3052 6.07511 17.1968C6.24925 17.0669 6.31802 16.911 6.31523 16.6523C6.31382 16.5252 6.19332 14.2168 6.04739 11.5224C5.7552 6.12716 5.78148 6.39218 5.52366 6.23497C5.35283 6.13083 5.09578 6.13488 4.93282 6.24429ZM8.20928 6.23497C8.13509 6.28021 8.05741 6.37496 8.01392 6.47331C7.94337 6.63285 7.94192 6.75373 7.95149 11.7767C7.96125 16.9028 7.96151 16.9172 8.03782 17.0194C8.17784 17.2069 8.30384 17.2749 8.51141 17.2749C8.74159 17.2749 8.92581 17.1624 9.00464 16.9736C9.04769 16.8706 9.05608 16.0077 9.05597 11.6999C9.05586 6.62588 9.05474 6.54753 8.98208 6.42836C8.82401 6.16913 8.46476 6.07921 8.20928 6.23497ZM11.4763 6.23679C11.314 6.34371 11.2394 6.4988 11.2198 6.77032C11.211 6.89372 11.0896 9.19608 10.9501 11.8867C10.7765 15.2337 10.7073 16.8181 10.7308 16.9032C10.7987 17.1493 11.1309 17.3396 11.3824 17.2765C11.5271 17.2402 11.6836 17.1187 11.7492 16.9918C11.7953 16.9027 11.856 15.9344 12.0661 11.9381C12.209 9.21924 12.3206 6.87353 12.314 6.72549C12.3027 6.47167 12.2942 6.44852 12.1655 6.31977C12.0449 6.19916 12.0038 6.18164 11.8136 6.16984C11.6403 6.15907 11.5745 6.17214 11.4763 6.23679Z" fill="#24242D"/>
</svg>
